<svg width="53" height="52" viewBox="0 0 53 52" fill="none" xmlns="http://www.w3.org/2000/svg">
<path d="M9.69643 0.243685L9.41214 0.487365V2.08144V3.67552L9.69643 3.9192C10.0823 4.25426 10.7219 4.25426 11.1382 3.9192C11.4123 3.69582 11.4428 3.6146 11.4733 2.90386L11.5139 2.13221H29.6782H47.8426V14.0624V25.9926H45.751H43.6695L44.228 24.9468L44.7864 23.9111L44.228 22.8653L43.6695 21.8297H38.9482H34.2371V23.9111V25.9926H28.338H22.4389L22.1444 26.287C21.7282 26.7033 21.7282 27.282 22.1444 27.7389L22.4389 28.074L36.1561 28.1045L49.8732 28.1248V28.5817V29.0386L36.1561 29.0589L22.4389 29.0893L22.1444 29.4244C21.586 30.0438 21.8398 30.9373 22.642 31.1708C22.9059 31.252 27.3328 31.2723 37.212 31.252L51.4165 31.2215L51.711 30.8865L52.0054 30.5616V28.5715V26.5815L51.711 26.287C51.4368 26.0129 51.3556 25.9926 50.6957 25.9926H49.9748L49.9545 13.2907L49.924 0.588899L49.5889 0.294452L49.264 4.63706e-06H29.6173H9.98073L9.69643 0.243685Z" fill="black"/>
<path d="M10.9555 5.34066C8.93495 5.82802 7.1378 7.53378 6.48799 9.59491C6.19354 10.5392 6.17324 12.3566 6.45753 13.1994C7.17842 15.3417 8.82326 16.9561 10.8336 17.5145L11.3413 17.6465L10.2244 17.6567C8.44759 17.677 7.4221 18.0323 6.46768 18.9665C6.2037 19.2304 5.87879 19.6569 5.7468 19.9209C5.21882 20.9565 5.19851 21.2103 5.19851 27.678V33.6787L4.77207 33.8716C4.07149 34.1863 3.0257 35.2829 2.61956 36.1358C1.69561 38.0751 1.94944 40.1869 3.30999 41.8724L3.76689 42.4207L3.34045 42.705C1.91898 43.6391 0.934108 44.8879 0.355367 46.5125C0.111687 47.2029 0.0913801 47.4161 0.0406134 49.3148L0 51.3658L0.3046 51.6805L0.609201 51.9851H26.0129H51.4166L51.7212 51.6805L52.0258 51.3658L51.9851 49.3148C51.9344 47.4161 51.9141 47.2029 51.6704 46.5125C51.0916 44.8879 50.1068 43.6391 48.6853 42.705L48.2589 42.4207L48.7158 41.8724C49.2234 41.2429 49.5179 40.6946 49.7311 40.0143C50.5738 37.2222 48.9899 34.2879 46.1774 33.4248C45.4667 33.2116 43.9843 33.2218 43.2533 33.435C42.4512 33.6787 41.5678 34.2168 40.9586 34.8361C39.0701 36.7653 39.0193 40.0042 40.8571 41.9942L41.2531 42.4207L40.7962 42.6847C40.2073 43.0299 39.3036 43.8523 38.8569 44.4818L38.4812 44.9793L38.0344 44.3803C37.5674 43.7609 36.948 43.1923 36.1967 42.6948L35.7601 42.4207L36.1865 41.9435C36.4099 41.6896 36.7551 41.1515 36.9379 40.7657C37.9634 38.6335 37.4862 36.1459 35.7601 34.5925C33.2725 32.3587 29.4447 32.9679 27.6983 35.8718C26.6119 37.6892 26.8759 40.2783 28.3075 41.913L28.7441 42.4105L28.2568 42.7354C27.5359 43.2025 26.8048 43.8828 26.4089 44.4615C26.2159 44.7458 26.0433 44.9692 26.0129 44.9692C25.9824 44.9692 25.8098 44.7458 25.6169 44.4615C25.2209 43.8828 24.4899 43.2025 23.769 42.7354L23.2816 42.4105L23.7182 41.913C24.8351 40.6337 25.2412 38.9178 24.8351 37.1613C24.4594 35.5063 22.9669 33.9426 21.3017 33.4553L20.8854 33.3334L20.855 28.6527L20.8347 23.9822L21.1088 23.8807C26.4698 21.9414 26.4393 21.9617 27.0587 21.4033C27.5562 20.9667 32.7445 14.1944 33.039 13.6055C33.2319 13.24 33.2725 12.976 33.2725 12.2855C33.2725 11.524 33.2319 11.3616 32.9679 10.8742C32.3892 9.82844 31.3738 9.29031 30.1148 9.36138C28.7847 9.45276 28.6527 9.56445 25.9317 13.0572C24.632 14.7224 23.4948 16.1235 23.3933 16.1641C23.3019 16.2047 21.6672 16.5601 19.7686 16.9561C16.4992 17.6262 16.2352 17.6668 14.9965 17.6668L13.6766 17.6567L14.3873 17.4231C17.4536 16.418 19.2812 13.3415 18.6619 10.2447C18.3979 8.9654 17.9004 8.0313 16.9256 7.04642C16.2657 6.3763 15.9509 6.14277 15.2503 5.80771C14.7731 5.58434 14.1436 5.35081 13.8492 5.28989C13.1181 5.13759 11.6764 5.16805 10.9555 5.34066ZM13.4227 7.45256C14.631 7.76731 15.626 8.59988 16.1946 9.73706C16.4992 10.3564 16.5195 10.4783 16.5195 11.4225C16.5195 12.3566 16.489 12.4988 16.1946 13.1283C15.7783 13.9913 15.0168 14.7528 14.1335 15.1691C13.5446 15.4534 13.372 15.4839 12.5089 15.4839C11.6357 15.4839 11.4834 15.4534 10.8539 15.1589C8.25467 13.9304 7.60486 10.6509 9.56445 8.6405C10.6407 7.53378 12.0622 7.09719 13.4227 7.45256ZM30.9169 11.7576C31.0185 11.849 31.0896 12.052 31.0896 12.2855C31.0896 12.6308 30.8154 13.0267 28.3888 16.1844C26.8962 18.1237 25.5661 19.7889 25.4138 19.8904C25.2717 19.9919 23.9213 20.5199 22.4084 21.0682C19.2203 22.2155 19.0375 22.2967 18.8751 22.581C18.7837 22.7333 18.7431 24.1954 18.7025 28.074L18.6517 33.3436L18.2456 33.4654C16.7124 33.902 15.362 35.2017 14.834 36.7348C14.5701 37.4862 14.4888 38.6741 14.631 39.4458C14.7833 40.2479 15.3214 41.3546 15.8392 41.9435L16.2657 42.4207L15.8291 42.6948C15.0777 43.1923 14.4584 43.7609 13.9913 44.3803L13.5446 44.9793L13.1689 44.4818C12.7221 43.8523 11.8185 43.0299 11.2296 42.6847L10.7727 42.4207L11.1687 41.9942C12.0622 41.0297 12.5089 39.8316 12.5089 38.4304C12.5089 35.7398 10.5899 33.6279 7.81808 33.2522L7.33072 33.1913V27.678C7.33072 21.8094 7.36118 21.3829 7.83839 20.7027C7.95007 20.5504 8.30544 20.2965 8.63035 20.1341L9.20909 19.8498L13.2704 19.7889L17.3318 19.7381L20.9057 18.9665C22.8755 18.5502 24.5914 18.1339 24.7336 18.0425C24.8656 17.9511 26.0636 16.4789 27.3937 14.763C28.7238 13.0572 29.9016 11.6154 30.0133 11.5748C30.2773 11.4733 30.6733 11.5545 30.9169 11.7576ZM8.25467 35.5875C9.29031 35.953 10.0518 36.8262 10.2752 37.9024C10.6712 39.8214 8.95525 41.7201 7.02612 41.4967C5.49296 41.314 4.38625 40.1666 4.30502 38.6639C4.22379 37.2425 4.96499 36.1155 6.36615 35.5672C6.80274 35.3946 7.73685 35.4047 8.25467 35.5875ZM20.8651 35.6382C22.4186 36.217 23.2309 38.136 22.5607 39.6691C22.1241 40.6946 20.8651 41.5272 19.7686 41.5272C19.1289 41.5272 18.2354 41.1617 17.7277 40.6946C16.7327 39.7808 16.4687 38.2578 17.0779 37.0496C17.3419 36.552 18.205 35.7905 18.7329 35.6078C19.3523 35.3844 20.2255 35.3946 20.8651 35.6382ZM33.2522 35.5976C33.8208 35.7905 34.6737 36.5317 34.9478 37.0496C35.7702 38.6741 34.9986 40.6743 33.2827 41.314C32.5516 41.5881 31.9627 41.5881 31.2215 41.314C29.0995 40.5119 28.5512 37.872 30.1859 36.2678C30.9677 35.5063 32.1963 35.2321 33.2522 35.5976ZM46.0556 35.7398C46.7054 36.0647 47.3755 36.8363 47.5887 37.476C47.9644 38.5929 47.6294 39.923 46.7968 40.6845C44.9895 42.309 42.2582 41.3952 41.7404 38.999C41.5272 38.004 42.045 36.6637 42.8776 36.0545C43.7812 35.3844 45.091 35.2524 46.0556 35.7398ZM8.76234 43.964C9.92997 44.3194 10.9047 45.0707 11.6053 46.1368C12.1637 46.9897 12.4074 47.8426 12.4074 48.9493V49.8529H7.27995H2.15251V49.1117C2.15251 47.5786 2.69064 46.2586 3.72628 45.2332C4.35579 44.6138 5.32035 44.0554 6.0717 43.8726C6.79259 43.7 8.07191 43.7406 8.76234 43.964ZM21.2611 43.964C22.5303 44.3498 23.7791 45.4058 24.3376 46.5429C24.7336 47.3451 24.896 48.0761 24.896 49.0102V49.8529H19.7686H14.6411V49.061C14.6411 46.7054 16.022 44.7356 18.1745 43.9945C19.068 43.6899 20.3372 43.6797 21.2611 43.964ZM33.7599 43.964C35.9225 44.6341 37.3846 46.6851 37.3846 49.061V49.8529H32.2572H27.1297V49.0102C27.1297 46.6546 28.4903 44.7356 30.6834 43.9945C31.5668 43.6899 32.8359 43.6797 33.7599 43.964ZM45.9134 43.8726C46.7156 44.0554 47.6598 44.5935 48.2995 45.2332C49.3351 46.2586 49.8732 47.5786 49.8732 49.1117V49.8529H44.7458H39.6184V48.9493C39.6184 47.0405 40.5626 45.3855 42.1973 44.4209C43.2228 43.8218 44.7153 43.5985 45.9134 43.8726Z" fill="black"/>
<path d="M30.7972 6.50069L31.7062 7.22717C35.4536 10.2218 41.5499 10.2218 45.2972 7.22717L46.2028 6.50069L45.2938 5.77421C41.5464 2.77956 35.4501 2.77956 31.7028 5.77421L30.7972 6.50069V6.50069ZM38.5 10C35.8699 10 33.2399 9.19865 31.2378 7.59873L30.0963 6.68647C29.9679 6.58388 29.9679 6.41751 30.0963 6.31214L31.2378 5.39988C35.2419 2.20004 41.7581 2.20004 45.7622 5.39988L46.9037 6.31214C47.0321 6.41474 47.0321 6.58111 46.9037 6.68647L45.7622 7.59873C43.7601 9.19865 41.1301 10 38.5 10V10Z" fill="#231F20"/>
<path d="M38.5 4.4904C37.1121 4.4904 35.9844 5.39156 35.9844 6.50069C35.9844 7.60982 37.1121 8.51099 38.5 8.51099C39.8879 8.51099 41.0156 7.60982 41.0156 6.50069C41.0156 5.39156 39.8879 4.4904 38.5 4.4904ZM38.5 9.03783C36.7478 9.03783 35.3252 7.8982 35.3252 6.50069C35.3252 5.10042 36.7513 3.96356 38.5 3.96356C40.2488 3.96356 41.6748 5.10319 41.6748 6.50069C41.6748 7.90097 40.2522 9.03783 38.5 9.03783Z" fill="#231F20"/>
</svg>
