<svg width="47" height="52" viewBox="0 0 47 52" fill="none" xmlns="http://www.w3.org/2000/svg">
<g filter="url(#filter0_d)">
<path fill-rule="evenodd" clip-rule="evenodd" d="M41 0H39V4H35V6H39V10H41V6H45V4H41V0ZM19 31C27.2843 31 34 24.2843 34 16C34 7.71573 27.2843 1 19 1C10.7157 1 4 7.71573 4 16C4 24.2843 10.7157 31 19 31ZM19 31C28.3888 31 36 38.6112 36 48H19H2C2 38.6112 9.61116 31 19 31Z" fill="#D1D1D1"/>
</g>
<defs>
<filter id="filter0_d" x="0" y="0" width="47" height="52" filterUnits="userSpaceOnUse" color-interpolation-filters="sRGB">
<feFlood flood-opacity="0" result="BackgroundImageFix"/>
<feColorMatrix in="SourceAlpha" type="matrix" values="0 0 0 0 0 0 0 0 0 0 0 0 0 0 0 0 0 0 127 0"/>
<feOffset dy="2"/>
<feGaussianBlur stdDeviation="1"/>
<feColorMatrix type="matrix" values="0 0 0 0 0 0 0 0 0 0 0 0 0 0 0 0 0 0 0.25 0"/>
<feBlend mode="normal" in2="BackgroundImageFix" result="effect1_dropShadow"/>
<feBlend mode="normal" in="SourceGraphic" in2="effect1_dropShadow" result="shape"/>
</filter>
</defs>
</svg>
