<svg xmlns="http://www.w3.org/2000/svg"><defs><filter id="course-add-filter0_d" width="27.812" height="34.282" x="29.8" y="20.8" color-interpolation-filters="sRGB" filterUnits="userSpaceOnUse"><feFlood flood-opacity="0" result="BackgroundImageFix"/><feColorMatrix in="SourceAlpha" values="0 0 0 0 0 0 0 0 0 0 0 0 0 0 0 0 0 0 127 0"/><feOffset dy="4"/><feGaussianBlur stdDeviation="2"/><feColorMatrix values="0 0 0 0 0 0 0 0 0 0 0 0 0 0 0 0 0 0 0.25 0"/><feBlend in2="BackgroundImageFix" result="effect1_dropShadow"/><feBlend in="SourceGraphic" in2="effect1_dropShadow" result="shape"/></filter><filter id="course-add-filter1_d" width="27.812" height="34.282" x="29.388" y="20.8" color-interpolation-filters="sRGB" filterUnits="userSpaceOnUse"><feFlood flood-opacity="0" result="BackgroundImageFix"/><feColorMatrix in="SourceAlpha" values="0 0 0 0 0 0 0 0 0 0 0 0 0 0 0 0 0 0 127 0"/><feOffset dy="4"/><feGaussianBlur stdDeviation="2"/><feColorMatrix values="0 0 0 0 0 0 0 0 0 0 0 0 0 0 0 0 0 0 0.25 0"/><feBlend in2="BackgroundImageFix" result="effect1_dropShadow"/><feBlend in="SourceGraphic" in2="effect1_dropShadow" result="shape"/></filter><filter id="course-add-filter2_d" width="41.4" height="52.4" x="1.8" y=".8" color-interpolation-filters="sRGB" filterUnits="userSpaceOnUse"><feFlood flood-opacity="0" result="BackgroundImageFix"/><feColorMatrix in="SourceAlpha" values="0 0 0 0 0 0 0 0 0 0 0 0 0 0 0 0 0 0 127 0"/><feOffset dy="4"/><feGaussianBlur stdDeviation="2"/><feColorMatrix values="0 0 0 0 0 0 0 0 0 0 0 0 0 0 0 0 0 0 0.25 0"/><feBlend in2="BackgroundImageFix" result="effect1_dropShadow"/><feBlend in="SourceGraphic" in2="effect1_dropShadow" result="shape"/></filter><filter id="course-add-filter3_d" width="41.4" height="52.4" x=".8" y=".8" color-interpolation-filters="sRGB" filterUnits="userSpaceOnUse"><feFlood flood-opacity="0" result="BackgroundImageFix"/><feColorMatrix in="SourceAlpha" values="0 0 0 0 0 0 0 0 0 0 0 0 0 0 0 0 0 0 127 0"/><feOffset dy="4"/><feGaussianBlur stdDeviation="2"/><feColorMatrix values="0 0 0 0 0 0 0 0 0 0 0 0 0 0 0 0 0 0 0.25 0"/><feBlend in2="BackgroundImageFix" result="effect1_dropShadow"/><feBlend in="SourceGraphic" in2="effect1_dropShadow" result="shape"/></filter><filter id="course-view-filter0_d" width="27.812" height="34.282" x="29.8" y="20.8" color-interpolation-filters="sRGB" filterUnits="userSpaceOnUse"><feFlood flood-opacity="0" result="BackgroundImageFix"/><feColorMatrix in="SourceAlpha" values="0 0 0 0 0 0 0 0 0 0 0 0 0 0 0 0 0 0 127 0"/><feOffset dy="4"/><feGaussianBlur stdDeviation="2"/><feColorMatrix values="0 0 0 0 0 0 0 0 0 0 0 0 0 0 0 0 0 0 0.25 0"/><feBlend in2="BackgroundImageFix" result="effect1_dropShadow"/><feBlend in="SourceGraphic" in2="effect1_dropShadow" result="shape"/></filter><filter id="course-view-filter1_d" width="27.812" height="34.282" x="29.388" y="20.8" color-interpolation-filters="sRGB" filterUnits="userSpaceOnUse"><feFlood flood-opacity="0" result="BackgroundImageFix"/><feColorMatrix in="SourceAlpha" values="0 0 0 0 0 0 0 0 0 0 0 0 0 0 0 0 0 0 127 0"/><feOffset dy="4"/><feGaussianBlur stdDeviation="2"/><feColorMatrix values="0 0 0 0 0 0 0 0 0 0 0 0 0 0 0 0 0 0 0.25 0"/><feBlend in2="BackgroundImageFix" result="effect1_dropShadow"/><feBlend in="SourceGraphic" in2="effect1_dropShadow" result="shape"/></filter><filter id="course-view-filter2_d" width="41.4" height="52.4" x="1.8" y=".8" color-interpolation-filters="sRGB" filterUnits="userSpaceOnUse"><feFlood flood-opacity="0" result="BackgroundImageFix"/><feColorMatrix in="SourceAlpha" values="0 0 0 0 0 0 0 0 0 0 0 0 0 0 0 0 0 0 127 0"/><feOffset dy="4"/><feGaussianBlur stdDeviation="2"/><feColorMatrix values="0 0 0 0 0 0 0 0 0 0 0 0 0 0 0 0 0 0 0.25 0"/><feBlend in2="BackgroundImageFix" result="effect1_dropShadow"/><feBlend in="SourceGraphic" in2="effect1_dropShadow" result="shape"/></filter><filter id="course-view-filter3_d" width="41.4" height="52.4" x=".8" y=".8" color-interpolation-filters="sRGB" filterUnits="userSpaceOnUse"><feFlood flood-opacity="0" result="BackgroundImageFix"/><feColorMatrix in="SourceAlpha" values="0 0 0 0 0 0 0 0 0 0 0 0 0 0 0 0 0 0 127 0"/><feOffset dy="4"/><feGaussianBlur stdDeviation="2"/><feColorMatrix values="0 0 0 0 0 0 0 0 0 0 0 0 0 0 0 0 0 0 0.25 0"/><feBlend in2="BackgroundImageFix" result="effect1_dropShadow"/><feBlend in="SourceGraphic" in2="effect1_dropShadow" result="shape"/></filter><filter id="search-filter0_d" width="32" height="32" x="0" y="0" color-interpolation-filters="sRGB" filterUnits="userSpaceOnUse"><feFlood flood-opacity="0" result="BackgroundImageFix"/><feColorMatrix in="SourceAlpha" values="0 0 0 0 0 0 0 0 0 0 0 0 0 0 0 0 0 0 127 0"/><feOffset dy="4"/><feGaussianBlur stdDeviation="2"/><feColorMatrix values="0 0 0 0 0 0 0 0 0 0 0 0 0 0 0 0 0 0 0.25 0"/><feBlend in2="BackgroundImageFix" result="effect1_dropShadow"/><feBlend in="SourceGraphic" in2="effect1_dropShadow" result="shape"/></filter><filter id="user-add-filter0_d" width="47" height="52" x="0" y="0" color-interpolation-filters="sRGB" filterUnits="userSpaceOnUse"><feFlood flood-opacity="0" result="BackgroundImageFix"/><feColorMatrix in="SourceAlpha" values="0 0 0 0 0 0 0 0 0 0 0 0 0 0 0 0 0 0 127 0"/><feOffset dy="2"/><feGaussianBlur stdDeviation="1"/><feColorMatrix values="0 0 0 0 0 0 0 0 0 0 0 0 0 0 0 0 0 0 0.25 0"/><feBlend in2="BackgroundImageFix" result="effect1_dropShadow"/><feBlend in="SourceGraphic" in2="effect1_dropShadow" result="shape"/></filter><filter id="user-group-filter0_d" width="24" height="31.647" x="48" y="13" color-interpolation-filters="sRGB" filterUnits="userSpaceOnUse"><feFlood flood-opacity="0" result="BackgroundImageFix"/><feColorMatrix in="SourceAlpha" values="0 0 0 0 0 0 0 0 0 0 0 0 0 0 0 0 0 0 127 0"/><feOffset dy="2"/><feGaussianBlur stdDeviation="1"/><feColorMatrix values="0 0 0 0 0 0 0 0 0 0 0 0 0 0 0 0 0 0 0.25 0"/><feBlend in2="BackgroundImageFix" result="effect1_dropShadow"/><feBlend in="SourceGraphic" in2="effect1_dropShadow" result="shape"/></filter><filter id="user-group-filter1_d" width="24" height="31.647" x="0" y="13" color-interpolation-filters="sRGB" filterUnits="userSpaceOnUse"><feFlood flood-opacity="0" result="BackgroundImageFix"/><feColorMatrix in="SourceAlpha" values="0 0 0 0 0 0 0 0 0 0 0 0 0 0 0 0 0 0 127 0"/><feOffset dy="2"/><feGaussianBlur stdDeviation="1"/><feColorMatrix values="0 0 0 0 0 0 0 0 0 0 0 0 0 0 0 0 0 0 0.25 0"/><feBlend in2="BackgroundImageFix" result="effect1_dropShadow"/><feBlend in="SourceGraphic" in2="effect1_dropShadow" result="shape"/></filter><filter id="user-group-filter2_d" width="38" height="51" x="17" y="0" color-interpolation-filters="sRGB" filterUnits="userSpaceOnUse"><feFlood flood-opacity="0" result="BackgroundImageFix"/><feColorMatrix in="SourceAlpha" values="0 0 0 0 0 0 0 0 0 0 0 0 0 0 0 0 0 0 127 0"/><feOffset dy="2"/><feGaussianBlur stdDeviation="1"/><feColorMatrix values="0 0 0 0 0 0 0 0 0 0 0 0 0 0 0 0 0 0 0.25 0"/><feBlend in2="BackgroundImageFix" result="effect1_dropShadow"/><feBlend in="SourceGraphic" in2="effect1_dropShadow" result="shape"/></filter></defs><symbol id="course-add" viewBox="0 0 58 56"><g filter="url(#course-add-filter0_d)"><rect width="19.412" height="25.882" x="34" y="21" rx="2"/><rect width="19.612" height="26.082" x="33.9" y="20.9" stroke="#000" stroke-width=".2" rx="2.1"/></g><g filter="url(#course-add-filter1_d)"><rect width="19.412" height="25.882" x="33.588" y="21" rx="2"/><rect width="19.612" height="26.082" x="33.488" y="20.9" stroke="#000" stroke-width=".2" rx="2.1"/></g><path d="M35.353 29.53l1.176-.883 1.177.882 2.353-.882 1.176.882L43 28.647l1.47.882 1.765-.882.883.882 1.47-.882.883.882H35.353zM35.353 32.47l1.176-.882 1.177.883 2.353-.883 1.176.883L43 31.588l1.47.883 1.765-.883.883.883 1.47-.883.883.883H35.353zM35.353 35.412l1.176-.883 1.177.883 2.353-.883 1.176.883L43 34.529l1.47.883 1.765-.883.883.883 1.47-.883.883.883H35.353z"/><g filter="url(#course-add-filter2_d)"><rect width="33" height="44" x="6" y="1" rx="2"/><rect width="33.2" height="44.2" x="5.9" y=".9" stroke="#000" stroke-width=".2" rx="2.1"/></g><g filter="url(#course-add-filter3_d)"><rect width="33" height="44" x="5" y="1" rx="2"/><rect width="33.2" height="44.2" x="4.9" y=".9" stroke="#000" stroke-width=".2" rx="2.1"/></g><path d="M9 15.5l2-1.5 2 1.5 4-1.5 2 1.5 3-1.5 2.5 1.5 3-1.5 1.5 1.5 2.5-1.5 1.5 1.5H9zM9 20.5l2-1.5 2 1.5 4-1.5 2 1.5 3-1.5 2.5 1.5 3-1.5 1.5 1.5 2.5-1.5 1.5 1.5H9zM9 25.5l2-1.5 2 1.5 4-1.5 2 1.5 3-1.5 2.5 1.5 3-1.5 1.5 1.5 2.5-1.5 1.5 1.5H9z"/><path stroke="#000" stroke-width=".5" d="M43.25 13.75v-1.5h9.5v1.5z"/><path stroke="#000" stroke-width=".5" d="M47.25 8.25h1.5v9.5h-1.5z"/><path d="M43 6V5h-1v1h1zm10 0h1V5h-1v1zm0 13v1h1v-1h-1zm-10 0h-1v1h1v-1zm0-12h10V5H43v2zm9-1v13h2V6h-2zm1 12H43v2h10v-2zm-9 1V6h-2v13h2z"/></symbol><symbol id="course-view" viewBox="0 0 58 56"><g filter="url(#course-view-filter0_d)"><rect width="19.412" height="25.882" x="34" y="21" rx="2"/><rect width="19.612" height="26.082" x="33.9" y="20.9" stroke="#000" stroke-width=".2" rx="2.1"/></g><g filter="url(#course-view-filter1_d)"><rect width="19.412" height="25.882" x="33.588" y="21" rx="2"/><rect width="19.612" height="26.082" x="33.488" y="20.9" stroke="#000" stroke-width=".2" rx="2.1"/></g><path d="M35.353 29.53l1.176-.883 1.177.882 2.353-.882 1.176.882L43 28.647l1.47.882 1.765-.882.883.882 1.47-.882.883.882H35.353zM35.353 32.47l1.176-.882 1.177.883 2.353-.883 1.176.883L43 31.588l1.47.883 1.765-.883.883.883 1.47-.883.883.883H35.353zM35.353 35.412l1.176-.883 1.177.883 2.353-.883 1.176.883L43 34.529l1.47.883 1.765-.883.883.883 1.47-.883.883.883H35.353z"/><g filter="url(#course-view-filter2_d)"><rect width="33" height="44" x="6" y="1" rx="2"/><rect width="33.2" height="44.2" x="5.9" y=".9" stroke="#000" stroke-width=".2" rx="2.1"/></g><g filter="url(#course-view-filter3_d)"><rect width="33" height="44" x="5" y="1" rx="2"/><rect width="33.2" height="44.2" x="4.9" y=".9" stroke="#000" stroke-width=".2" rx="2.1"/></g><path d="M9 15.5l2-1.5 2 1.5 4-1.5 2 1.5 3-1.5 2.5 1.5 3-1.5 1.5 1.5 2.5-1.5 1.5 1.5H9zM9 20.5l2-1.5 2 1.5 4-1.5 2 1.5 3-1.5 2.5 1.5 3-1.5 1.5 1.5 2.5-1.5 1.5 1.5H9zM9 25.5l2-1.5 2 1.5 4-1.5 2 1.5 3-1.5 2.5 1.5 3-1.5 1.5 1.5 2.5-1.5 1.5 1.5H9z"/></symbol><symbol id="home" viewBox="0 0 53 49"><rect width="30.3" height="23.675" x="11.75" y="23.938" stroke="#fff" stroke-width="1.5" rx="4.25"/><path d="M24.524 1.968a2.8 2.8 0 013.952 0l16.17 16.104c1.77 1.762.522 4.784-1.976 4.784H10.33c-2.498 0-3.746-3.021-1.976-4.784l16.17-16.104z"/><rect width="9" height="11" x="21.5" y="36.5" stroke="#fff" rx="1.5"/><path d="M34 3h4v10h-4V3z"/><mask id="a"><rect width="4" height="4" x="24" y="29" rx=".2"/></mask><rect width="4" height="4" x="24" y="29" stroke="#fff" stroke-width="2" mask="url(#a)" rx=".2"/><mask id="b"><rect width="4" height="4" x="31" y="29" rx=".2"/></mask><rect width="4" height="4" x="31" y="29" stroke="#fff" stroke-width="2" mask="url(#b)" rx=".2"/><mask id="c"><rect width="4" height="4" x="17" y="29" rx=".2"/></mask><rect width="4" height="4" x="17" y="29" stroke="#fff" stroke-width="2" mask="url(#c)" rx=".2"/></symbol><symbol id="reload" viewBox="0 0 34 34"><mask id="a"><path fill-rule="evenodd" d="M1 16.732C1 8.049 8.131 1 16.941 1c4.317 0 8.232 1.693 11.102 4.442L23.97 8.475a.3.3 0 00.077.523l9.154 3.313a.3.3 0 00.401-.299l-.554-9.72a.3.3 0 00-.479-.223l-3.715 2.767A16.997 16.997 0 0016.941 0C7.591 0 0 7.485 0 16.732s7.591 16.732 16.941 16.732c5.214 0 9.879-2.327 12.987-5.986l-.763-.648a15.992 15.992 0 01-12.224 5.634C8.131 32.464 1 25.414 1 16.732z" clip-rule="evenodd"/></mask></symbol><symbol id="search" viewBox="0 0 42 50"><g filter="url(#search-filter0_d)"><path fill-rule="evenodd" d="M20.227 21.066A9.962 9.962 0 0116 22c-5.523 0-10-4.477-10-10S10.477 2 16 2s10 4.477 10 10a9.974 9.974 0 01-3.275 7.401l1.173 1.634A11.972 11.972 0 0028 12c0-6.627-5.373-12-12-12S4 5.373 4 12s5.373 12 12 12a11.95 11.95 0 005.41-1.286l-1.183-1.648z" clip-rule="evenodd"/></g><g filter="url(#search-filter1_d)"><path d="M21 22.527l2.737-1.965 13.415 18.682-2.737 1.965z"/></g></symbol><symbol id="user-group" viewBox="0 0 72 51"><g filter="url(#user-group-filter0_d)"><mask id="a"><path fill-rule="evenodd" d="M60 30.647A8.824 8.824 0 1060 13a8.824 8.824 0 000 17.647zm0 0c5.523 0 10 4.477 10 10H50c0-5.523 4.477-10 10-10z" clip-rule="evenodd"/></mask><path fill-rule="evenodd" d="M60 30.647A8.824 8.824 0 1060 13a8.824 8.824 0 000 17.647zm0 0c5.523 0 10 4.477 10 10H50c0-5.523 4.477-10 10-10z" clip-rule="evenodd"/><path d="M70 40.647v.1h.1v-.1H70zm-20 0h-.1v.1h.1v-.1zm18.724-18.823A8.724 8.724 0 0160 30.547v.2a8.924 8.924 0 008.924-8.924h-.2zM60 13.1a8.724 8.724 0 018.724 8.723h.2A8.924 8.924 0 0060 12.9v.2zm-8.724 8.723A8.724 8.724 0 0160 13.1v-.2a8.924 8.924 0 00-8.923 8.923h.2zM60 30.547a8.724 8.724 0 01-8.724-8.724h-.2A8.924 8.924 0 0060 30.747v-.2zm0 .2c5.468 0 9.9 4.432 9.9 9.9h.2c0-5.578-4.522-10.1-10.1-10.1v.2zm10 9.8H60v.2h10v-.2zm-10 0H50v.2h10v-.2zm-9.9.1c0-5.468 4.432-9.9 9.9-9.9v-.2c-5.578 0-10.1 4.522-10.1 10.1h.2z" mask="url(#a)"/></g><g filter="url(#user-group-filter1_d)"><mask id="b"><path fill-rule="evenodd" d="M12 30.647A8.824 8.824 0 1012 13a8.824 8.824 0 000 17.647zm0 0c5.523 0 10 4.477 10 10H2c0-5.523 4.477-10 10-10z" clip-rule="evenodd"/></mask><path fill-rule="evenodd" d="M12 30.647A8.824 8.824 0 1012 13a8.824 8.824 0 000 17.647zm0 0c5.523 0 10 4.477 10 10H2c0-5.523 4.477-10 10-10z" clip-rule="evenodd"/><path d="M22 40.647v.1h.1v-.1H22zm-20 0h-.1v.1H2v-.1zm18.724-18.823A8.724 8.724 0 0112 30.547v.2a8.924 8.924 0 008.924-8.924h-.2zM12 13.1a8.724 8.724 0 018.724 8.723h.2A8.924 8.924 0 0012 12.9v.2zm-8.724 8.723A8.724 8.724 0 0112 13.1v-.2a8.924 8.924 0 00-8.924 8.923h.2zM12 30.547a8.724 8.724 0 01-8.724-8.724h-.2A8.924 8.924 0 0012 30.747v-.2zm0 .2c5.468 0 9.9 4.432 9.9 9.9h.2c0-5.578-4.522-10.1-10.1-10.1v.2zm10 9.8H12v.2h10v-.2zm-10 0H2v.2h10v-.2zm-9.9.1c0-5.468 4.432-9.9 9.9-9.9v-.2c-5.578 0-10.1 4.522-10.1 10.1h.2z" mask="url(#b)"/></g><g filter="url(#user-group-filter2_d)"><mask id="c"><path fill-rule="evenodd" d="M36 30c8.284 0 15-6.716 15-15 0-8.284-6.716-15-15-15-8.284 0-15 6.716-15 15 0 8.284 6.716 15 15 15zm0 0c9.389 0 17 7.611 17 17H19c0-9.389 7.611-17 17-17z" clip-rule="evenodd"/></mask><path fill-rule="evenodd" d="M36 30c8.284 0 15-6.716 15-15 0-8.284-6.716-15-15-15-8.284 0-15 6.716-15 15 0 8.284 6.716 15 15 15zm0 0c9.389 0 17 7.611 17 17H19c0-9.389 7.611-17 17-17z" clip-rule="evenodd"/><path d="M53 47v.1h.1V47H53zm-34 0h-.1v.1h.1V47zm31.9-32c0 8.229-6.671 14.9-14.9 14.9v.2c8.34 0 15.1-6.76 15.1-15.1h-.2zM36 .1C44.229.1 50.9 6.771 50.9 15h.2C51.1 6.66 44.34-.1 36-.1v.2zM21.1 15C21.1 6.771 27.771.1 36 .1v-.2C27.66-.1 20.9 6.66 20.9 15h.2zM36 29.9c-8.229 0-14.9-6.671-14.9-14.9h-.2c0 8.34 6.76 15.1 15.1 15.1v-.2zm0 .2c9.334 0 16.9 7.566 16.9 16.9h.2c0-9.444-7.656-17.1-17.1-17.1v.2zm17 16.8H36v.2h17v-.2zm-17 0H19v.2h17v-.2zm-16.9.1c0-9.334 7.566-16.9 16.9-16.9v-.2c-9.444 0-17.1 7.656-17.1 17.1h.2z" mask="url(#c)"/></g></symbol><symbol id="user" viewBox="0 0 38 51"><g filter="url(#user-filter0_d)"><path fill-rule="evenodd" d="M19 30c8.284 0 15-6.716 15-15 0-8.284-6.716-15-15-15C10.716 0 4 6.716 4 15c0 8.284 6.716 15 15 15zm0 0c9.389 0 17 7.611 17 17H2c0-9.389 7.611-17 17-17z" clip-rule="evenodd"/></g></symbol></svg>